<svg width="24" height="24" viewBox="0 0 24 24" fill="none" xmlns="http://www.w3.org/2000/svg">
<g clip-path="url(#clip0_8_846)">
<path d="M11.869 4.67784C8.03217 4.74106 4.79967 7.9082 4.66304 11.7368C4.58234 13.9612 5.50119 16.073 7.18484 17.5324C7.91021 18.1618 8.32562 19.1292 8.32562 20.2515C8.32562 21.7669 9.55993 23 11.0767 23H12.9107C14.4275 23 15.6618 21.7669 15.6618 20.2515V19.908C15.6618 19.023 16.079 18.1691 16.8374 17.5022C18.422 16.1114 19.3299 14.1087 19.3299 12.0062C19.3299 10.0263 18.5513 8.17022 17.1382 6.78133C15.7251 5.39244 13.8525 4.63295 11.869 4.67784ZM13.8277 20.2515C13.8277 20.7573 13.4169 21.1677 12.9107 21.1677H11.0767C10.5705 21.1677 10.1597 20.7573 10.1597 20.1883C10.1597 19.8988 10.1312 19.6148 10.0891 19.3354H13.8653C13.8424 19.5241 13.8277 19.7156 13.8277 19.908V20.2515ZM15.6269 16.1261C15.1583 16.5375 14.7805 17.0029 14.4898 17.5031H12.9107V13.6699C13.9754 13.2906 14.7448 12.2828 14.7448 11.09C14.7448 10.5834 14.3349 10.1738 13.8277 10.1738C13.3206 10.1738 12.9107 10.5834 12.9107 11.09C12.9107 11.5966 12.4999 12.0062 11.9937 12.0062C11.4875 12.0062 11.0767 11.5957 11.0767 11.09C11.0767 10.5843 10.6668 10.1738 10.1597 10.1738C9.65255 10.1738 9.24264 10.5834 9.24264 11.09C9.24264 12.2828 10.012 13.2906 11.0767 13.6699V17.5031H9.47556C9.19129 16.9919 8.82723 16.532 8.38614 16.149C7.12432 15.0542 6.43472 13.4702 6.49525 11.8028C6.59795 8.93154 9.02255 6.55687 11.9002 6.51015C11.9313 6.51015 11.9616 6.51015 11.9937 6.51015C13.4481 6.51015 14.8154 7.06809 15.8525 8.08868C16.9126 9.13035 17.4967 10.522 17.4967 12.0071C17.4967 13.5829 16.8154 15.0835 15.6279 16.127L15.6269 16.1261ZM16.3816 3.27887L17.5142 1.4374C17.7783 1.00498 18.3432 0.870305 18.7751 1.13691C19.207 1.40167 19.3418 1.96511 19.0759 2.39662L17.9433 4.23809C17.7709 4.52026 17.4692 4.67509 17.1611 4.67509C16.997 4.67509 16.8319 4.63112 16.6824 4.5395C16.2505 4.27473 16.1157 3.71038 16.3816 3.27887ZM22.4597 7.07908L20.6871 7.87797C20.5651 7.93385 20.4367 7.9595 20.3111 7.9595C19.9608 7.9595 19.6279 7.75887 19.4748 7.41989C19.2657 6.95906 19.4711 6.41578 19.9333 6.20873L21.7059 5.40985C22.1699 5.20005 22.7109 5.4071 22.9182 5.86792C23.1273 6.32875 22.9218 6.87203 22.4597 7.07908ZM4.83544 2.3957C4.57042 1.96419 4.70614 1.39984 5.13805 1.13599C5.57181 0.872138 6.13486 1.00773 6.39896 1.43832L7.52873 3.28071C7.79375 3.71221 7.65803 4.27657 7.22611 4.54042C7.07664 4.63203 6.91066 4.67509 6.74834 4.67509C6.43931 4.67509 6.13852 4.51935 5.96521 4.23717L4.83544 2.39479V2.3957ZM4.39252 7.48127C4.23571 7.81017 3.90741 8.00165 3.56536 8.00165C3.4324 8.00165 3.29759 7.97325 3.17013 7.91095L1.52132 7.12214C1.06465 6.90409 0.871157 6.35715 1.09032 5.90091C1.30766 5.44375 1.85787 5.2486 2.31271 5.47031L3.96152 6.25912C4.41819 6.47717 4.61168 7.02503 4.39252 7.48127Z" fill="black"/>
</g>
<defs>
<clipPath id="clip0_8_846">
<rect width="24" height="24" fill="white"/>
</clipPath>
</defs>
</svg>
