<svg width="40" height="40" viewBox="0 0 40 40" fill="none" xmlns="http://www.w3.org/2000/svg">
<rect x="0.5" y="0.5" width="39" height="39" rx="7.5" stroke="#E7E6E9"/>
<path d="M8.92614 16.2727V25H7.92045V16.2727H8.92614ZM13.4272 25.1364C12.8363 25.1364 12.3178 24.9957 11.8718 24.7145C11.4286 24.4332 11.082 24.0398 10.832 23.5341C10.5849 23.0284 10.4613 22.4375 10.4613 21.7614C10.4613 21.0795 10.5849 20.4844 10.832 19.9759C11.082 19.4673 11.4286 19.0724 11.8718 18.7912C12.3178 18.5099 12.8363 18.3693 13.4272 18.3693C14.0181 18.3693 14.5352 18.5099 14.9783 18.7912C15.4244 19.0724 15.771 19.4673 16.0181 19.9759C16.2681 20.4844 16.3931 21.0795 16.3931 21.7614C16.3931 22.4375 16.2681 23.0284 16.0181 23.5341C15.771 24.0398 15.4244 24.4332 14.9783 24.7145C14.5352 24.9957 14.0181 25.1364 13.4272 25.1364ZM13.4272 24.233C13.8761 24.233 14.2454 24.1179 14.5352 23.8878C14.8249 23.6577 15.0394 23.3551 15.1786 22.9801C15.3178 22.6051 15.3874 22.1989 15.3874 21.7614C15.3874 21.3239 15.3178 20.9162 15.1786 20.5384C15.0394 20.1605 14.8249 19.8551 14.5352 19.6222C14.2454 19.3892 13.8761 19.2727 13.4272 19.2727C12.9783 19.2727 12.609 19.3892 12.3192 19.6222C12.0295 19.8551 11.815 20.1605 11.6758 20.5384C11.5366 20.9162 11.467 21.3239 11.467 21.7614C11.467 22.1989 11.5366 22.6051 11.6758 22.9801C11.815 23.3551 12.0295 23.6577 12.3192 23.8878C12.609 24.1179 12.9783 24.233 13.4272 24.233ZM20.5703 27.5909C20.0845 27.5909 19.6669 27.5284 19.3175 27.4034C18.968 27.2812 18.6768 27.1193 18.4439 26.9176C18.2138 26.7188 18.0305 26.5057 17.8942 26.2784L18.6953 25.7159C18.7862 25.8352 18.9013 25.9716 19.0405 26.125C19.1797 26.2812 19.37 26.4162 19.6115 26.5298C19.8558 26.6463 20.1754 26.7045 20.5703 26.7045C21.0987 26.7045 21.5348 26.5767 21.8786 26.321C22.2223 26.0653 22.3942 25.6648 22.3942 25.1193V23.7898H22.3089C22.2351 23.9091 22.13 24.0568 21.9936 24.233C21.8601 24.4062 21.6669 24.5611 21.4141 24.6974C21.1641 24.831 20.826 24.8977 20.3999 24.8977C19.8714 24.8977 19.397 24.7727 18.9766 24.5227C18.5589 24.2727 18.228 23.9091 17.9837 23.4318C17.7422 22.9545 17.6214 22.375 17.6214 21.6932C17.6214 21.0227 17.7393 20.4389 17.9751 19.9418C18.2109 19.4418 18.5391 19.0554 18.9595 18.7827C19.38 18.5071 19.8658 18.3693 20.4169 18.3693C20.843 18.3693 21.1811 18.4403 21.4311 18.5824C21.6839 18.7216 21.8771 18.8807 22.0107 19.0597C22.147 19.2358 22.2521 19.3807 22.326 19.4943H22.4283V18.4545H23.3999V25.1875C23.3999 25.75 23.272 26.2074 23.0163 26.5597C22.7635 26.9148 22.4226 27.1747 21.9936 27.3395C21.5675 27.5071 21.093 27.5909 20.5703 27.5909ZM20.5362 23.9943C20.9396 23.9943 21.2805 23.902 21.5589 23.7173C21.8374 23.5327 22.049 23.267 22.1939 22.9205C22.3388 22.5739 22.4112 22.1591 22.4112 21.6761C22.4112 21.2045 22.3402 20.7884 22.1982 20.4276C22.0561 20.0668 21.8459 19.7841 21.5675 19.5795C21.2891 19.375 20.9453 19.2727 20.5362 19.2727C20.1101 19.2727 19.755 19.3807 19.4709 19.5966C19.1896 19.8125 18.978 20.1023 18.8359 20.4659C18.6967 20.8295 18.6271 21.233 18.6271 21.6761C18.6271 22.1307 18.6982 22.5327 18.8402 22.8821C18.9851 23.2287 19.1982 23.5014 19.4794 23.7003C19.7635 23.8963 20.1158 23.9943 20.5362 23.9943ZM27.8999 25.1364C27.3089 25.1364 26.7905 24.9957 26.3445 24.7145C25.9013 24.4332 25.5547 24.0398 25.3047 23.5341C25.0575 23.0284 24.9339 22.4375 24.9339 21.7614C24.9339 21.0795 25.0575 20.4844 25.3047 19.9759C25.5547 19.4673 25.9013 19.0724 26.3445 18.7912C26.7905 18.5099 27.3089 18.3693 27.8999 18.3693C28.4908 18.3693 29.0078 18.5099 29.451 18.7912C29.897 19.0724 30.2436 19.4673 30.4908 19.9759C30.7408 20.4844 30.8658 21.0795 30.8658 21.7614C30.8658 22.4375 30.7408 23.0284 30.4908 23.5341C30.2436 24.0398 29.897 24.4332 29.451 24.7145C29.0078 24.9957 28.4908 25.1364 27.8999 25.1364ZM27.8999 24.233C28.3487 24.233 28.718 24.1179 29.0078 23.8878C29.2976 23.6577 29.5121 23.3551 29.6513 22.9801C29.7905 22.6051 29.8601 22.1989 29.8601 21.7614C29.8601 21.3239 29.7905 20.9162 29.6513 20.5384C29.5121 20.1605 29.2976 19.8551 29.0078 19.6222C28.718 19.3892 28.3487 19.2727 27.8999 19.2727C27.451 19.2727 27.0817 19.3892 26.7919 19.6222C26.5021 19.8551 26.2876 20.1605 26.1484 20.5384C26.0092 20.9162 25.9396 21.3239 25.9396 21.7614C25.9396 22.1989 26.0092 22.6051 26.1484 22.9801C26.2876 23.3551 26.5021 23.6577 26.7919 23.8878C27.0817 24.1179 27.451 24.233 27.8999 24.233Z" fill="#3A383F"/>
</svg>
